<?xml version="1.0" encoding="UTF-8" standalone="no"?>
<!-- Created with Inkscape (http://www.inkscape.org/) -->

<svg
   width="23.133131mm"
   height="21.974367mm"
   viewBox="0 0 23.133131 21.974367"
   version="1.1"
   id="svg1"
   xml:space="preserve"
   inkscape:version="1.4 (86a8ad7, 2024-10-11)"
   sodipodi:docname="itschoollog.svg"
   xmlns:inkscape="http://www.inkscape.org/namespaces/inkscape"
   xmlns:sodipodi="http://sodipodi.sourceforge.net/DTD/sodipodi-0.dtd"
   xmlns="http://www.w3.org/2000/svg"
   xmlns:svg="http://www.w3.org/2000/svg"><sodipodi:namedview
     id="namedview1"
     pagecolor="#ffffff"
     bordercolor="#000000"
     borderopacity="0.25"
     inkscape:showpageshadow="2"
     inkscape:pageopacity="0.0"
     inkscape:pagecheckerboard="0"
     inkscape:deskcolor="#d1d1d1"
     inkscape:document-units="mm"
     inkscape:zoom="2.9683221"
     inkscape:cx="15.49697"
     inkscape:cy="26.782808"
     inkscape:window-width="1920"
     inkscape:window-height="1051"
     inkscape:window-x="-9"
     inkscape:window-y="-9"
     inkscape:window-maximized="1"
     inkscape:current-layer="layer1" /><defs
     id="defs1"><rect
       x="189.83789"
       y="524.87567"
       width="60.977211"
       height="28.46726"
       id="rect47407" /></defs><g
     inkscape:label="Calque 1"
     inkscape:groupmode="layer"
     id="layer1"
     transform="translate(-41.893909,-115.08598)"><g
       id="g47408"><rect
         style="fill:#009ee0;fill-opacity:1;stroke-width:0.282947"
         id="rect47400"
         width="23.133131"
         height="21.974367"
         x="41.893909"
         y="115.08598" /></g><g
       id="g47407"
       transform="translate(-27.320078,0.71308523)"><path
         id="rect47401-1"
         style="fill:#ffffff;stroke-width:1.06649"
         d="m 82.673507,121.61738 h -1.529623 c -0.675408,0 -1.20096,0.71282 -1.20096,1.56838 v 12.72481 c 0,0.85554 0.525552,1.57044 1.20096,1.57044 h 1.529623 v -0.30179 h -1.529623 c -0.509738,0 -0.935343,-0.55154 -0.935343,-1.26865 v -12.72481 c 0,-0.71711 0.425605,-1.26865 0.935343,-1.26865 h 1.529623 z" /><path
         id="rect47401-14"
         style="fill:#ffffff"
         d="m 78.723994,114.39265 v 8.35867 c 0,0.63048 -0.427671,1.11724 -0.93741,1.11724 h -5.09633 v 0.26355 h 5.09633 c 0.675409,0 1.201477,-0.6286 1.201477,-1.38079 v -8.35867 z" /><path
         id="rect47401-16"
         style="fill:#ffffff"
         d="m 75.720959,143.49253 h 2.101681 c 0.675409,0 1.203544,-0.62704 1.203544,-1.37924 v -11.18743 c 0,-0.75219 -0.528135,-1.37873 -1.203544,-1.37873 h -2.101681 v 0.26355 h 2.101681 c 0.509739,0 0.937927,0.4847 0.937927,1.11518 v 11.18743 c 0,0.63048 -0.428188,1.11519 -0.937927,1.11518 h -2.101681 z" /><path
         id="path47406"
         style="fill:#ffffff"
         d="m 82.299243,125.06637 c -0.730506,0 -1.30483,0.66445 -1.30483,1.46451 v 11.40654 h 0.285254 v -11.40654 c 0,-0.66624 0.462657,-1.18132 1.019576,-1.18132 h 12.407513 v -0.28319 z" /><path
         id="path47406-8"
         style="fill:#ffffff"
         d="m 87.219218,127.26593 h -3.806486 c -0.730506,0 -1.30483,0.66445 -1.30483,1.46451 v 11.40654 h 0.285254 v -11.40654 c 0,-0.66624 0.462657,-1.18132 1.019576,-1.18132 h 3.806486 z" /><circle
         style="fill:none;fill-opacity:1;stroke:#ffffff;stroke-width:0.244211"
         id="path47401"
         cx="83.97142"
         cy="121.84844"
         r="1.2135175" /><circle
         style="fill:none;fill-opacity:1;stroke:#ffffff;stroke-width:0.244211"
         id="path47401-5"
         cx="88.272652"
         cy="127.33659"
         r="1.2135175" /><circle
         style="fill:none;fill-opacity:1;stroke:#ffffff;stroke-width:0.244211"
         id="path47401-3"
         cx="71.49012"
         cy="123.9692"
         r="1.2135175" /><circle
         style="fill:none;fill-opacity:1;stroke:#ffffff;stroke-width:0.244211"
         id="path47401-38"
         cx="74.651001"
         cy="129.68396"
         r="1.2135175" /><path
         style="fill:#ffffff;fill-opacity:1;stroke:#0000ff;stroke-width:0.264583"
         d="M 71.932471,123.14091 Z"
         id="path47402" /></g><circle
       style="fill:#ffffff;fill-opacity:1;stroke:none;stroke-width:0.211875"
       id="path47410-4-8"
       cx="49.357124"
       cy="121.42323"
       r="1.142061" /><rect
       style="fill:#000000;fill-opacity:1;stroke:none;stroke-width:0.0884704"
       id="rect47411-0-8"
       width="8.3550777"
       height="1.0819526"
       x="52.353851"
       y="120.93768"
       rx="0"
       ry="0" /><rect
       style="fill:#000000;fill-opacity:1;stroke:none;stroke-width:0.107178"
       id="rect47411-89-2"
       width="12.262129"
       height="1.0819526"
       x="121.58559"
       y="-56.261166"
       rx="0"
       ry="0"
       transform="rotate(90)" /><rect
       style="fill:#000000;fill-opacity:1;stroke:none;stroke-width:0.0940244"
       id="rect47411-89-0-9"
       width="9.4370308"
       height="1.0819526"
       x="124.35356"
       y="-49.898102"
       rx="0"
       ry="0"
       transform="rotate(90)" /></g></svg>
